<svg version="1.1" id="Layer_1" xmlns="http://www.w3.org/2000/svg" x="0" y="0" viewBox="0 0 511.999 511.999" xml:space="preserve"><path d="M312.611 87.588c.154-7.856-4.963-15.748-15.346-21.743L198.502 8.823c-20.376-11.764-53.306-11.764-73.549 0L26.829 65.848C16.74 71.711 11.707 79.389 11.718 87.075l-.001-.074v225.028c-.022 7.759 5.099 15.53 15.352 21.449l98.763 57.021c20.376 11.764 53.306 11.764 73.549 0l98.124-57.023c10.057-5.844 15.091-13.493 15.113-21.153V87.294c0 .098-.005.195-.007.294z" fill="#1d1d1f"/><path d="M312.618 87.294v225.028c-.022 7.66-5.056 15.309-15.113 21.153V108.447c10.057-5.844 15.091-13.493 15.113-21.153z" fill="#2e2e30"/><path d="M11.716 312.028V87c-.022 7.759 5.099 15.53 15.352 21.449v225.028c-10.253-5.918-15.374-13.689-15.352-21.449zm285.789-203.581v225.028l-98.124 57.024V165.47z" fill="#1d1d1f"/><path fill="#2e2e30" d="M125.832 165.471v225.028l-98.764-57.021V108.45z"/><path d="M199.381 165.47v225.028c-20.244 11.764-53.173 11.764-73.549 0V165.471c20.376 11.763 53.305 11.763 73.549-.001z" fill="#3e3d43"/><path d="M297.266 65.845c20.376 11.764 20.484 30.839.239 42.603l-98.124 57.023c-20.244 11.764-53.173 11.764-73.549 0L27.068 108.45C6.692 96.685 6.586 77.612 26.829 65.848l98.124-57.023c20.244-11.764 53.173-11.764 73.549 0l98.764 57.02z" fill="#57565c"/><path d="M162.656 164.389c-12.004 0-23.62-2.732-31.871-7.496L32.021 99.871c-6.604-3.812-10.393-8.481-10.4-12.811-.006-4.274 3.706-8.885 10.184-12.649l98.124-57.023c8.182-4.754 19.755-7.482 31.749-7.482 12.004 0 23.621 2.732 31.872 7.496l98.763 57.02c6.604 3.813 10.393 8.482 10.4 12.811.006 4.274-3.706 8.885-10.185 12.649l-98.124 57.023c-8.182 4.756-19.754 7.484-31.748 7.484z" fill="#e0e0e2"/><path d="M63.801 93.889s.269 7.326 2.065 8.019c1.796.693 8.107-.878 8.107-.878l1.355-5.243-11.527-1.898zm4.512-34.611s3.5 4.113 4.856 3.694 4.286-4.21 4.286-4.21l-1.61-3.65-7.532 4.166zM45.585 95.79c-.96-.426-5.2-9.867-2.724-11.496 2.476-1.629 4.786-2.867 4.786-2.867s3.881-.743 3.881-3.219 2.229-7.924 2.972-7.924c.743 0 13.125.495 14.857 0 1.732-.495 11.144-8.42 11.887-7.924.743.495 3.467 1.486 4.21 2.476.743.991-6.439 5.448-8.915 9.41-2.476 3.962-13.867 10.656-13.867 13.128S54.5 88.856 54.5 88.856s1.486 3.962 1.486 4.953c0 .99-8.173 2.971-10.401 1.981z" fill="#d8d8da"/><g fill="#86bc06"><path d="M179.576 127.988l44.186-25.511c4.876-2.816 7.312-6.512 7.302-10.201l-.24-20.266-.001.036c.005-3.655-2.388-7.307-7.187-10.096l-43.9-25.512c-9.628-5.595-25.29-5.595-34.981 0L100.57 61.949c-5.016 2.896-7.443 6.725-7.288 10.52-.004-.106-.014-.212-.014-.318l.24 20.266c.01 3.644 2.404 7.281 7.188 10.06l43.9 25.512c9.628 5.594 25.29 5.594 34.98-.001z"/><path d="M93.509 92.416l-.24-20.266c.01 3.644 2.404 7.281 7.188 10.06l.24 20.266c-4.783-2.779-7.177-6.417-7.188-10.06z"/></g><path d="M230.825 72.01l.24 20.266c.01 3.691-2.425 7.386-7.302 10.201l-.24-20.266c4.877-2.814 7.312-6.51 7.302-10.201z" fill="#7aab02"/><path fill="#86bc06" d="M144.356 107.724l.24 20.264-43.899-25.511-.24-20.265z"/><path fill="#7aab02" d="M223.523 82.212l.24 20.265-44.187 25.511-.239-20.264z"/><path d="M179.337 107.724l.24 20.266c-9.691 5.595-25.353 5.595-34.981 0l-.24-20.266c9.628 5.594 25.29 5.594 34.981 0z" fill="#8fcc05"/><path d="M179.337 107.724c-9.691 5.595-25.353 5.595-34.981 0l-43.9-25.512c-9.628-5.595-9.576-14.667.114-20.262l44.187-25.511c9.691-5.595 25.353-5.595 34.981 0l43.9 25.512c9.628 5.595 9.576 14.667-.114 20.262l-44.187 25.511z" fill="#9cdd03"/><path d="M500.276 200.266c.154-7.856-4.963-15.748-15.346-21.743l-98.763-57.021c-20.376-11.764-53.306-11.764-73.549 0l-98.124 57.023c-10.089 5.863-15.123 13.542-15.111 21.227l-.001-.074v225.028c-.022 7.759 5.099 15.53 15.352 21.449l98.763 57.021c20.376 11.764 53.306 11.764 73.549 0l98.124-57.023c10.057-5.844 15.091-13.493 15.113-21.153V199.972c0 .098-.005.195-.007.294z" fill="#1d1d1f"/><path d="M500.283 199.972V425c-.022 7.66-5.056 15.309-15.113 21.153V221.125c10.057-5.844 15.091-13.493 15.113-21.153z" fill="#2e2e30"/><path d="M199.381 424.707V199.678c-.022 7.759 5.099 15.53 15.352 21.449v225.028c-10.253-5.918-15.374-13.689-15.352-21.448zM485.17 221.125v225.028l-98.124 57.024V278.148z" fill="#1d1d1f"/><path fill="#2e2e30" d="M313.497 278.149v225.028l-98.763-57.021V221.128z"/><path d="M387.046 278.148v225.028c-20.244 11.764-53.173 11.764-73.549 0V278.149c20.376 11.763 53.306 11.763 73.549-.001z" fill="#3e3d43"/><path d="M484.931 178.523c20.376 11.764 20.484 30.839.239 42.603l-98.124 57.022c-20.244 11.764-53.173 11.764-73.549 0l-98.763-57.021c-20.376-11.764-20.484-30.839-.239-42.603l98.124-57.023c20.244-11.764 53.173-11.764 73.549 0l98.763 57.022z" fill="#57565c"/><path d="M350.321 277.067c-12.004 0-23.62-2.732-31.871-7.496l-98.763-57.021c-6.604-3.812-10.393-8.481-10.4-12.811-.006-4.274 3.706-8.885 10.184-12.649l98.124-57.023c8.182-4.755 19.755-7.482 31.749-7.482 12.004 0 23.621 2.732 31.872 7.496l98.763 57.02c6.604 3.813 10.393 8.482 10.4 12.811.006 4.274-3.706 8.885-10.184 12.649l-98.124 57.023c-8.184 4.756-19.756 7.483-31.75 7.483z" fill="#e0e0e2"/><path d="M251.465 206.567s.269 7.326 2.065 8.019c1.796.694 8.107-.878 8.107-.878l1.355-5.243-11.527-1.898zm4.513-34.611s3.5 4.113 4.856 3.694c1.355-.419 4.286-4.21 4.286-4.21l-1.61-3.65-7.532 4.166zm-22.728 36.512c-.96-.426-5.2-9.867-2.724-11.496 2.476-1.629 4.786-2.867 4.786-2.867s3.881-.743 3.881-3.219 2.229-7.924 2.972-7.924 13.125.495 14.857 0c1.732-.495 11.144-8.42 11.887-7.924.743.495 3.467 1.486 4.21 2.476.743.991-6.439 5.448-8.915 9.41-2.476 3.962-13.867 10.656-13.867 13.128 0 2.472-8.172 1.482-8.172 1.482s1.486 3.962 1.486 4.953c-.001.99-8.172 2.972-10.401 1.981z" fill="#d8d8da"/><g fill="#f91"><path d="M367.242 240.666l44.186-25.511c4.876-2.816 7.312-6.512 7.302-10.201l-.24-20.266-.001.036c.005-3.655-2.388-7.307-7.187-10.096l-43.9-25.512c-9.628-5.595-25.289-5.595-34.981 0l-44.186 25.511c-5.016 2.896-7.443 6.725-7.288 10.52-.004-.106-.014-.212-.014-.318l.24 20.266c.01 3.644 2.404 7.281 7.188 10.06l43.9 25.512c9.627 5.594 25.29 5.594 34.981-.001z"/><path d="M281.174 205.094l-.24-20.266c.01 3.644 2.404 7.281 7.188 10.06l.24 20.266c-4.783-2.779-7.177-6.416-7.188-10.06z"/></g><path d="M418.49 184.689l.24 20.266c.01 3.691-2.425 7.386-7.302 10.202l-.24-20.266c4.877-2.816 7.312-6.512 7.302-10.202z" fill="#f18700"/><path fill="#f91" d="M332.022 220.402l.239 20.264-43.899-25.511-.24-20.265z"/><path fill="#f18700" d="M411.188 194.89l.241 20.265-44.187 25.511-.24-20.264z"/><path d="M367.002 220.402l.24 20.266c-9.691 5.595-25.353 5.595-34.981 0l-.24-20.266c9.628 5.594 25.29 5.594 34.981 0z" fill="#ffa834"/><path d="M367.002 220.402c-9.691 5.595-25.353 5.595-34.981 0l-43.9-25.512c-9.628-5.595-9.576-14.667.114-20.262l44.187-25.511c9.691-5.595 25.353-5.595 34.981 0l43.9 25.512c9.628 5.595 9.576 14.667-.114 20.262l-44.187 25.511z" fill="#ffb657"/></svg>